<?xml version="1.0" encoding="utf-8"?>
<!-- Generator: Adobe Illustrator 22.1.0, SVG Export Plug-In . SVG Version: 6.00 Build 0)  -->
<svg version="1.1" id="Camada_1" xmlns="http://www.w3.org/2000/svg" xmlns:xlink="http://www.w3.org/1999/xlink" x="0px" y="0px"
	 viewBox="0 0 400 193" style="enable-background:new 0 0 400 193;" xml:space="preserve">
<style type="text/css">
	.st0{fill:#EFC349;}
	.st1{fill:#814A76;}
	.st2{fill:#FFFFFF;}
	.st3{fill:#4D4C4F;}
</style>
<g>
	<g>
		<g>
			<g>
				<g>
					<g>
						<path class="st0" d="M7.3,167.4v-56.1H21v22.2h17.1v-22.2h13.8v56.1H38.1v-21.9H21v21.9H7.3z"/>
					</g>
				</g>
				<g>
					<g>
						<path class="st0" d="M62.5,139.3c0-3.9,0.8-7.7,2.3-11.2c1.5-3.6,3.5-6.6,6.1-9.2c2.5-2.6,5.6-4.6,9.1-6.1
							c3.5-1.5,7.2-2.3,11.1-2.3c5.2,0,10,1.3,14.4,3.9c4.4,2.6,7.9,6.1,10.4,10.5c2.5,4.4,3.8,9.3,3.8,14.5c0,5.2-1.3,10-3.8,14.4
							c-2.5,4.4-6,7.9-10.4,10.5c-4.4,2.6-9.2,3.9-14.4,3.9c-3.9,0-7.6-0.8-11.1-2.3c-3.5-1.5-6.6-3.6-9.1-6.2
							c-2.5-2.6-4.6-5.6-6.1-9.2C63.2,146.9,62.5,143.2,62.5,139.3z M76.2,139.3c0,4.2,1.4,7.7,4.3,10.7c2.9,2.9,6.4,4.4,10.5,4.4
							c4.2,0,7.7-1.5,10.6-4.4c2.9-2.9,4.4-6.5,4.4-10.7s-1.5-7.7-4.4-10.7c-2.9-2.9-6.5-4.4-10.6-4.4c-4.1,0-7.6,1.5-10.5,4.4
							C77.7,131.6,76.2,135.1,76.2,139.3z"/>
					</g>
				</g>
				<g>
					<g>
						<path class="st0" d="M126.8,167.4l6.9-56.1h11.3l15.8,34.1l15.6-34.1H188l6.8,56.1h-14l-3.9-30.2l-11.2,23.7h-10.1l-11.3-23.7
							l-3.9,30.2H126.8z"/>
					</g>
				</g>
				<g>
					<g>
						<path class="st0" d="M205.5,167.4v-56.1h36.4v11.9h-22.8v10.7h20.1v11.7h-20.1v9.9h23.6v11.9H205.5z"/>
					</g>
				</g>
				<path class="st1" d="M254.1,167.4v-56.1h23.2c3.2,0,6,0.5,8.6,1.6c2.5,1.1,4.5,2.5,6.1,4.3c1.5,1.8,2.7,3.8,3.5,6
					c0.8,2.2,1.2,4.5,1.2,6.9c0,2.4-0.4,4.7-1.2,6.9c-0.8,2.2-1.9,4.1-3.5,5.9c-1.5,1.8-3.5,3.2-6.1,4.2c-2.5,1-5.4,1.6-8.6,1.6
					h-9.6v18.8H254.1z M267.7,136.9h9c2.1,0,3.6-0.7,4.6-2c1-1.4,1.5-3,1.5-4.9c0-1.9-0.5-3.5-1.5-4.8c-1-1.3-2.5-2-4.6-2h-9V136.9z
					"/>
				<path class="st1" d="M305.6,167.4v-56.1H342v11.9h-22.8v10.7h20.1v11.7h-20.1v9.9h23.6v11.9H305.6z"/>
				<path class="st1" d="M350,123.2v-11.9h42.6v11.9h-14.5v44.2h-13.6v-44.2H350z"/>
			</g>
		</g>
		<g>
			<g>
				<path class="st1" d="M59.3,100.3L42.9,47v53.3H7.3V4.6h50.6l15.7,51.9L89.3,4.6h50.6v95.7h-35.5V47L88,100.3H59.3z"/>
				<path class="st1" d="M250.6,100.3h-39.6l-2.7-13.7h-17.8l-2.7,13.7h-39.6l28-95.7h46.5C222.7,5.2,250.6,100.3,250.6,100.3z"/>
				<path class="st1" d="M312,100.3l-16.4-31.4h-1.4v31.4h-35.5V4.6c0,0,19.1-1.4,39.6-1.4c30.1,0,43.7,13.7,43.7,33.5
					s-12.3,26.6-12.3,26.6l23.2,36.9H312z M298.4,44.3c4.8,0,8.2-3.4,8.2-7.5s-3.4-7.5-8.2-7.5h-4.1v15H298.4z"/>
				<path class="st1" d="M392.7,100.3h-35.5V4.6h35.5V100.3z"/>
			</g>
		</g>
		<path class="st2" d="M229.8,57.8c0,8.9-7.3,16.2-16.2,16.2c-4.3,0-8.2-1.7-11.1-4.5c7.6-3.9,12.5-19.7,12.5-19.7s-13.9-9.7-31.7,0
			c0,0,4.9,16,12.6,19.8c-2.9,2.7-6.8,4.4-11.1,4.4c-8.9,0-16.2-7.3-16.2-16.2h-4.5c0,11.4,9.3,20.7,20.7,20.7
			c5.6,0,10.7-2.2,14.4-5.9c3.7,3.6,8.8,5.9,14.4,5.9c11.4,0,20.7-9.3,20.7-20.7H229.8z"/>
		<path class="st0" d="M190.4,52.5c0,0,7.9-4.1,17.8,0c0,0-5.3,11.6-9.1,11.6C195.4,64.1,190.4,52.5,190.4,52.5z"/>
	</g>
	<g>
		<path class="st3" d="M71.8,184.3c0,0,2.3,0.4,2.3,2.5c0,1.6-1.3,2.9-4.8,2.9c-2.3,0-4.3-0.1-4.3-0.1v-10c0,0,2-0.1,4.2-0.1
			c3.2,0,4.5,1.3,4.5,2.8C73.7,183.9,71.8,184.2,71.8,184.3L71.8,184.3z M68.7,183.2h0.5c0.5,0,0.8-0.3,0.8-0.6
			c0-0.4-0.3-0.6-0.8-0.6h-0.5V183.2z M70.1,186.4c0-0.4-0.3-0.7-0.9-0.7h-0.6v1.4c0,0,0.3,0,0.6,0
			C69.8,187.1,70.1,186.8,70.1,186.4z"/>
		<path class="st3" d="M87.1,189.5h-4.1l-0.3-1.4h-1.9l-0.3,1.4h-4.1l2.9-10h4.8C84.2,179.6,87.1,189.5,87.1,189.5z M82.2,185.8
			l-0.5-2.6l-0.5,2.6H82.2z"/>
		<path class="st3" d="M93.5,185.1v4.4h-3.7v-10h4.1l2.4,4.4v-4.4h3.7v10h-4.1L93.5,185.1z"/>
		<path class="st3" d="M107.2,183h2.3v-3.4h3.7v10h-3.7v-3.4h-2.3v3.4h-3.7v-10h3.7V183z"/>
		<path class="st3" d="M121.9,189.7c-3.3,0-5.6-2.3-5.6-5.2c0-2.9,2.3-5.2,5.6-5.2c3.3,0,5.6,2.3,5.6,5.2
			C127.4,187.5,125.1,189.7,121.9,189.7z M121.9,182.8c-0.9,0-1.6,0.7-1.6,1.7c0,1,0.7,1.7,1.6,1.7c0.9,0,1.6-0.7,1.6-1.7
			C123.4,183.5,122.7,182.8,121.9,182.8z"/>
		<path class="st3" d="M138.8,186.7h4.3v2.9h-8v-10h7.7v2.9h-4v0.7h3.7v2.9h-3.7V186.7z"/>
		<path class="st3" d="M159.2,179.5v3.3h-2.7v6.7h-3.7v-6.7h-2.7v-3.3H159.2z"/>
		<path class="st3" d="M167.1,189.7c-3.3,0-5.6-2.3-5.6-5.2c0-2.9,2.3-5.2,5.6-5.2s5.6,2.3,5.6,5.2
			C172.6,187.5,170.3,189.7,167.1,189.7z M167.1,182.8c-0.9,0-1.6,0.7-1.6,1.7c0,1,0.7,1.7,1.6,1.7c0.9,0,1.6-0.7,1.6-1.7
			C168.6,183.5,167.9,182.8,167.1,182.8z"/>
		<path class="st3" d="M179.4,186.4c0-0.7-3.8-0.7-3.8-3.8c0-1.6,1.6-3.2,4.1-3.2c2.6,0,3.8,1.6,3.8,1.6l-1.4,2.1
			c0,0-0.9-0.8-1.9-0.8c-0.4,0-0.6,0.2-0.6,0.4c0,0.7,3.8,0.7,3.8,3.8c0,1.6-1.6,3.2-4.1,3.2c-3.1,0-4.4-1.7-4.4-1.7l1.4-2.1
			c0,0,1,0.9,2.4,0.9C179.2,186.8,179.4,186.6,179.4,186.4z"/>
		<path class="st3" d="M196.4,189.5h-4.1l-0.3-1.4h-1.9l-0.3,1.4h-4.1l2.9-10h4.8C193.5,179.6,196.4,189.5,196.4,189.5z
			 M191.5,185.8l-0.5-2.6l-0.5,2.6H191.5z"/>
		<path class="st3" d="M207.3,186.7h4.3v2.9h-8v-10h7.7v2.9h-4v0.7h3.7v2.9h-3.7V186.7z"/>
		<path class="st3" d="M220,189.5l-1.7-5.6v5.6h-3.7v-10h5.3l1.6,5.4l1.6-5.4h5.3v10h-3.7V184l-1.7,5.6H220z"/>
		<path class="st3" d="M240.7,189.7c-2.3,0-4.3-0.1-4.3-0.1v-10c0,0,2-0.1,4.3-0.1c3.8,0,5.7,2.1,5.7,5.1
			C246.4,187.6,244.5,189.7,240.7,189.7z M240.7,186.5c1.1,0,1.7-0.6,1.7-2s-0.6-2-1.7-2h-0.6v4H240.7z"/>
		<path class="st3" d="M254.8,189.7c-3.3,0-5.6-2.3-5.6-5.2c0-2.9,2.3-5.2,5.6-5.2s5.6,2.3,5.6,5.2
			C260.4,187.5,258.1,189.7,254.8,189.7z M254.8,182.8c-0.9,0-1.6,0.7-1.6,1.7c0,1,0.7,1.7,1.6,1.7s1.6-0.7,1.6-1.7
			C256.4,183.5,255.7,182.8,254.8,182.8z"/>
		<path class="st3" d="M268.9,189.5l-1.7-5.6v5.6h-3.7v-10h5.3l1.6,5.4l1.6-5.4h5.3v10h-3.7V184l-1.7,5.6H268.9z"/>
		<path class="st3" d="M284.5,189.5h-3.7v-10h3.7V189.5z"/>
		<path class="st3" d="M292.9,179.3c2.7,0,4,1.6,4,1.6l-1.7,2.7c0,0-0.9-0.8-1.9-0.8c-1,0-1.7,0.7-1.7,1.7c0,1,0.7,1.7,1.7,1.7
			c1,0,1.9-0.8,1.9-0.8l1.7,2.7c0,0-1.3,1.6-4,1.6c-3,0-5.3-2.3-5.3-5.2C287.6,181.6,289.9,179.3,292.9,179.3z"/>
		<path class="st3" d="M303.4,189.5h-3.7v-10h3.7V189.5z M301.7,175.6h3l-2,3h-2.3L301.7,175.6z"/>
		<path class="st3" d="M310.6,186.2h3.8v3.3h-7.6v-10h3.7V186.2z"/>
		<path class="st3" d="M321,189.5h-3.7v-10h3.7V189.5z"/>
		<path class="st3" d="M329.7,189.7c-3.3,0-5.6-2.3-5.6-5.2c0-2.9,2.3-5.2,5.6-5.2s5.6,2.3,5.6,5.2
			C335.2,187.5,333,189.7,329.7,189.7z M329.7,182.8c-0.9,0-1.6,0.7-1.6,1.7c0,1,0.7,1.7,1.6,1.7c0.9,0,1.6-0.7,1.6-1.7
			C331.2,183.5,330.5,182.8,329.7,182.8z"/>
	</g>
</g>
</svg>
